PathFileType	4	(X/Y/Z)	./resultDataOpenSim/trcMotMarkerGrf/sub06/qtm-13-08.trc
DataRate	CameraRate	NumFrames	NumMarkers	Units	OrigDataRate	OrigDataStartFrame	OrigNumFrames
250.000000	250.000000	12	24	m	250.000000	458	523
Frame#	Time	L.Toe.Tip			R.Toe.Tip			L.Ankle.Lat			R.Ankle.Lat			L.Ankle.Med			R.Ankle.Med			L.Heel			R.Heel			L.Knee.Lat			R.Knee.Lat			L.Knee.Med			R.Knee.Med			L.Thigh.Upper			R.Thigh.Upper			L.ASIS			R.ASIS			V.Sacral			L.Acromium			R.Acromium			C7			L.Elbow			R.Elbow			L.Wrist.Lat			R.Wrist.Lat
		X1	Y1	Z1	X2	Y2	Z2	X3	Y3	Z3	X4	Y4	Z4	X5	Y5	Z5	X6	Y6	Z6	X7	Y7	Z7	X8	Y8	Z8	X9	Y9	Z9	X10	Y10	Z10	X11	Y11	Z11	X12	Y12	Z12	X13	Y13	Z13	X14	Y14	Z14	X15	Y15	Z15	X16	Y16	Z16	X17	Y17	Z17	X18	Y18	Z18	X19	Y19	Z19	X20	Y20	Z20	X21	Y21	Z21	X22	Y22	Z22	X23	Y23	Z23	X24	Y24	Z24

458	1.828	1.6725318	0.033779386	-0.048726164	1.2524043	0.081775909	0.13807906	1.548575	0.067149857	-0.079605799	1.218074	0.21601439	0.15806529	1.5478102	0.080936782	0.0074929329	1.2574476	0.20734138	0.078452912	1.4711888	0.040137285	-0.040276278	1.182944	0.25027622	0.092583996	1.6258331	0.43574247	-0.086782651	1.5403539	0.41636154	0.19196258	1.590855	0.43324343	0.029310897	1.5454347	0.39244882	0.057543416	1.5172635	0.81851257	-0.15550026	1.4523032	0.77396898	0.18083944	1.5790188	0.86018596	-0.099371549	1.5579364	0.8389645	0.14618493	1.3769515	0.92108785	0.016890375	1.4824636	1.3257725	-0.16957714	1.4756494	1.3248159	0.19387411	1.4029879	1.362657	0.0087224464	1.3981179	1.0194873	-0.21407804	1.4299646	1.0014914	0.26348313	1.5059314	0.80276963	-0.25673897	1.6490819	0.88567598	0.23087524
459	1.832	1.6725219	0.033788124	-0.048705898	1.2688472	0.08155244	0.13933067	1.5485647	0.067272738	-0.07954553	1.2321537	0.21477993	0.15782728	1.5476961	0.081025532	0.0075437328	1.2711402	0.20644225	0.078001329	1.4711911	0.040272293	-0.040192274	1.1958661	0.24797617	0.09143446	1.6268182	0.43572374	-0.086406269	1.5510286	0.41935581	0.19179058	1.5912788	0.43329859	0.029595491	1.5567811	0.39520401	0.057338649	1.5218235	0.8193639	-0.15550619	1.4570706	0.77632946	0.18122685	1.5839622	0.86134234	-0.099648717	1.5611001	0.84085875	0.14662379	1.3830187	0.92261073	0.01663226	1.4883298	1.3276616	-0.16942924	1.4807264	1.3264363	0.19385631	1.4085178	1.3643019	0.0086409089	1.4061479	1.0205042	-0.21472878	1.4333381	1.0034963	0.26258691	1.5175626	0.8052572	-0.25646517	1.6498862	0.88277614	0.23221525
460	1.836	1.6725147	0.033794769	-0.048695275	1.2854421	0.08123556	0.14059696	1.5485551	0.067394256	-0.079481435	1.2463239	0.21336066	0.15757593	1.5474075	0.081088428	0.0075846875	1.2850113	0.20535051	0.077678214	1.4711893	0.040420272	-0.040101546	1.2088266	0.24541856	0.090336396	1.6277367	0.43570648	-0.086045768	1.5616441	0.42237134	0.19161053	1.5918232	0.43336944	0.029896433	1.5681617	0.39807921	0.05709692	1.526476	0.82021138	-0.15550284	1.4618621	0.7786806	0.18177616	1.5888644	0.86252571	-0.099909831	1.5654295	0.84284823	0.14669568	1.3891779	0.92411258	0.016378457	1.4941801	1.3295613	-0.16926696	1.4859196	1.3280255	0.19385302	1.4140351	1.3659041	0.0085843057	1.4141582	1.0215505	-0.2153874	1.4366754	1.005517	0.26170554	1.5291758	0.80784803	-0.256158	1.6505758	0.87997893	0.23360113
461	1.84	1.6725082	0.03379929	-0.048696374	1.3022014	0.080835802	0.1418689	1.5485413	0.067512572	-0.079410463	1.260421	0.21180591	0.15725243	1.5469492	0.08111363	0.0076226892	1.299022	0.20407663	0.077436707	1.4711801	0.040584179	-0.039982987	1.2218104	0.24259949	0.08933337	1.6285925	0.4356887	-0.085703043	1.5721942	0.42538369	0.19141499	1.5924221	0.43344689	0.030202598	1.5794645	0.40109819	0.056846537	1.5311199	0.82107811	-0.15547118	1.4665454	0.78102923	0.18254037	1.5937076	0.86373728	-0.1001474	1.5705693	0.84492161	0.14651425	1.395085	0.9256591	0.016181005	1.5000142	1.3314645	-0.16909038	1.4912206	1.329599	0.19389525	1.4195405	1.3674516	0.0085464663	1.4221486	1.0226198	-0.21604644	1.4399065	1.007529	0.26084429	1.5407937	0.81054364	-0.25581044	1.6511516	0.87728448	0.23503232
462	1.844	1.6725026	0.033803461	-0.048708411	1.3191447	0.080364882	0.14313339	1.5485201	0.067631203	-0.079333774	1.2744663	0.21010739	0.15687848	1.5464796	0.081134101	0.0076709099	1.3131321	0.20263055	0.077237629	1.4711672	0.040760386	-0.039835375	1.2348349	0.23951772	0.088436603	1.6293894	0.43566953	-0.085379639	1.5826755	0.42838509	0.19119461	1.592977	0.43352697	0.030496245	1.5905863	0.4042751	0.05660382	1.5356395	0.82199502	-0.15541267	1.4710898	0.78340038	0.18349489	1.598535	0.86498034	-0.10036991	1.5760331	0.84705052	0.14621992	1.4006614	0.9272162	0.016059527	1.5058349	1.3333665	-0.16889823	1.4965896	1.3311544	0.19398412	1.4250348	1.3689522	0.0085187361	1.4301188	1.0237109	-0.21669511	1.4429492	1.0095128	0.26000761	1.552495	0.81334185	-0.25540841	1.651617	0.87469771	0.23651558
463	1.848	1.6725003	0.033809923	-0.048728412	1.336262	0.07982948	0.14437219	1.5484914	0.067755903	-0.079255611	1.2885139	0.20824411	0.15651348	1.5461812	0.08119695	0.0077356791	1.3273003	0.20102599	0.077058334	1.4711586	0.0409399	-0.039670909	1.2479348	0.23618989	0.087643905	1.6301248	0.43564893	-0.085081126	1.5930759	0.431376	0.19094114	1.5934518	0.43361971	0.030769361	1.6016372	0.40761819	0.056360054	1.5400147	0.82296121	-0.15533067	1.4756472	0.78580743	0.18454023	1.6034309	0.86625314	-0.10060048	1.5815293	0.8492107	0.14588622	1.4060909	0.92870628	0.015991152	1.5116601	1.33528	-0.16869551	1.5019678	1.3326621	0.19407843	1.430519	1.3704159	0.0084930922	1.4380668	1.0248233	-0.21733905	1.44582	1.0114627	0.25920073	1.564366	0.81623367	-0.25493884	1.6519775	0.87222071	0.23804963
464	1.852	1.6725043	0.033820256	-0.048752219	1.3534976	0.079225425	0.14556636	1.5484565	0.067891429	-0.07918191	1.3025687	0.20620717	0.15619246	1.5461058	0.08131681	0.007809237	1.3414853	0.19927706	0.076883623	1.4711625	0.041118224	-0.039504973	1.26114	0.2326424	0.086954607	1.6307981	0.43562737	-0.084810102	1.6033801	0.43435416	0.19065255	1.593838	0.43374458	0.031025257	1.6127382	0.41113254	0.056091888	1.5444791	0.82393378	-0.15521229	1.4807452	0.78816707	0.18550047	1.6084226	0.86754498	-0.10084492	1.5869812	0.85138364	0.1455316	1.4115474	0.93011063	0.015943241	1.5175237	1.3372355	-0.16849948	1.5073191	1.334091	0.19413374	1.4359934	1.3718443	0.0084653409	1.445988	1.0259534	-0.21799014	1.4486805	1.0133883	0.25843109	1.5763912	0.81920925	-0.25441104	1.6522413	0.86984974	0.23962637
465	1.856	1.6725148	0.033833174	-0.048776287	1.3707977	0.07854567	0.14670501	1.5484185	0.068039359	-0.079118312	1.3166278	0.20399887	0.15592207	1.5461812	0.081473903	0.0078776631	1.3556725	0.19739579	0.076702823	1.4711835	0.041301298	-0.039349821	1.2744634	0.22889569	0.086371002	1.6314162	0.43560361	-0.084561462	1.6135918	0.4373105	0.19033214	1.5940638	0.43392589	0.031278412	1.6237461	0.41481021	0.055772372	1.5493589	0.82486681	-0.15504156	1.4872867	0.7902661	0.18615334	1.6134568	0.86883969	-0.10108028	1.5924249	0.85355193	0.14516401	1.4170082	0.93145692	0.015906659	1.5234523	1.3392491	-0.16833216	1.5126444	1.3354369	0.19413912	1.4414556	1.3732314	0.0084349405	1.4538789	1.0270932	-0.21864938	1.451701	1.0153017	0.25769432	1.588422	0.82226132	-0.25386176	1.6524164	0.8675795	0.24124169
466	1.86	1.6725301	0.033845392	-0.048798951	1.3882005	0.077797268	0.14779326	1.5483816	0.068196795	-0.079067824	1.3306987	0.20163248	0.15570825	1.5462914	0.081637886	0.0079306823	1.3699104	0.19540214	0.076518224	1.4712227	0.041499504	-0.039212736	1.2879094	0.22496076	0.085894593	1.631979	0.4355716	-0.084332746	1.6237343	0.44023127	0.18998306	1.5940205	0.43418628	0.031552367	1.6343246	0.41861445	0.055383552	1.5546361	0.82574845	-0.15483255	1.4959609	0.79190688	0.18635134	1.6184744	0.87012251	-0.10128263	1.5979202	0.8556991	0.14479543	1.4223668	0.93275829	0.015889716	1.5294292	1.3412817	-0.16819766	1.5179593	1.3367127	0.1941104	1.4469027	1.3745621	0.0083991064	1.4617434	1.028236	-0.21931277	1.4549145	1.0172025	0.25697154	1.6003239	0.82537969	-0.2533244	1.6525122	0.86540638	0.24289195
467	1.864	1.6725504	0.033854136	-0.048819925	1.4058754	0.077009375	0.1488506	1.5483501	0.068358043	-0.079028873	1.3447984	0.19911908	0.15556534	1.5463027	0.081778222	0.0079633509	1.3842818	0.19332308	0.076338948	1.4712782	0.041716698	-0.039093535	1.3014831	0.22084423	0.085525361	1.632473	0.43552342	-0.084131223	1.6338171	0.44310271	0.18960576	1.5937315	0.43451867	0.031851706	1.6443228	0.42247257	0.05493779	1.5599637	0.82659111	-0.15462263	1.5064458	0.79313414	0.18616035	1.6234576	0.87138307	-0.10144857	1.6034871	0.85781366	0.14443232	1.4275919	0.93400464	0.015901277	1.5353941	1.3432509	-0.16806989	1.5232764	1.3379215	0.19406975	1.4523358	1.3758201	0.0083510565	1.4695945	1.0293765	-0.21998301	1.4582304	1.0190768	0.25625106	1.6120887	0.82855397	-0.25280055	1.652541	0.86332667	0.24456869
468	1.868	1.6725761	0.033858036	-0.048838772	1.4239565	0.076207867	0.14989334	1.5483292	0.068519411	-0.078995233	1.3589566	0.19645599	0.15550511	1.5460931	0.081869854	0.0079763103	1.3988062	0.19116347	0.076175595	1.4713453	0.041947815	-0.038984769	1.3151809	0.21655007	0.085264786	1.6328917	0.4354588	-0.083964675	1.6438147	0.44591599	0.18919902	1.5934423	0.43487144	0.03214138	1.6539015	0.42628689	0.054482547	1.5651121	0.82740171	-0.15442862	1.5174792	0.7942375	0.18583099	1.6284136	0.87261363	-0.10158662	1.6090821	0.85989164	0.14407123	1.432729	0.93518571	0.015948096	1.541301	1.3450945	-0.16791437	1.5286021	1.3390522	0.1940362	1.4577584	1.3770023	0.0082904601	1.4774435	1.0305049	-0.22066623	1.4615064	1.0208999	0.25553516	1.6237404	0.8317883	-0.25227363	1.6525142	0.86133406	0.24626611
469	1.872	1.6726057	0.033856784	-0.048854673	1.4422838	0.075374598	0.1509173	1.5483247	0.068682288	-0.078959335	1.3732069	0.19363576	0.15553069	1.5456775	0.081919236	0.0079825064	1.4134327	0.18889027	0.076067674	1.4714182	0.042186342	-0.038878461	1.3289805	0.21207998	0.085122218	1.6332503	0.43538911	-0.083832234	1.6536969	0.44866932	0.18876134	1.5934213	0.43519145	0.032383666	1.6632489	0.42997477	0.054067555	1.5701008	0.82817073	-0.15423941	1.5278064	0.79550529	0.18561586	1.6333563	0.8738058	-0.10170231	1.614641	0.86193322	0.14370557	1.4378356	0.93630109	0.016036438	1.5471585	1.3468116	-0.16771877	1.5339335	1.3400972	0.19402185	1.4631727	1.3781187	0.0082313417	1.4852864	1.0316077	-0.2213623	1.4646104	1.0226413	0.2548292	1.6352187	0.83510234	-0.25173732	1.6524363	0.8594211	0.24798191
